<?xml version="1.0" encoding="UTF-8" standalone="no"?><!DOCTYPE svg PUBLIC "-//W3C//DTD SVG 1.1//EN" "http://www.w3.org/Graphics/SVG/1.1/DTD/svg11.dtd"><svg width="100%" height="100%" viewBox="0 0 525 623" version="1.1" xmlns="http://www.w3.org/2000/svg" xmlns:xlink="http://www.w3.org/1999/xlink" xml:space="preserve" xmlns:serif="http://www.serif.com/" style="fill-rule:evenodd;clip-rule:evenodd;stroke-linejoin:round;stroke-miterlimit:1.41421;"><rect id="Mesa-de-trabajo1" serif:id="Mesa de trabajo1" x="0" y="0" width="524.358" height="622.192" style="fill:none;"/><g><path d="M270.396,335.287l0,38.826l-56.695,0c-4.873,0 -8.791,-3.918 -8.791,-8.75l0,-29.533c0,-0.181 0,-0.362 0.033,-0.543l65.453,0Z" style="fill:#f1c40f;fill-rule:nonzero;"/><path d="M335.89,335.287l-130.947,0c0.255,-4.576 4.074,-8.206 8.758,-8.206l113.431,0c4.684,0 8.495,3.63 8.758,8.206Z" style="fill:#fbf4a4;fill-rule:nonzero;"/><path d="M335.923,335.83l0,29.533c0,4.832 -3.926,8.75 -8.791,8.75l-56.736,0l0,-38.826l65.494,0c0.033,0.181 0.033,0.362 0.033,0.543Z" style="fill:#dea111;fill-rule:nonzero;"/><path d="M244.97,382.327l0,38.826l-56.695,0c-4.864,0 -8.79,-3.918 -8.79,-8.75l0,-29.533c0,-0.181 0,-0.362 0.041,-0.543l65.444,0Z" style="fill:#f1c40f;fill-rule:nonzero;"/><path d="M310.464,382.327l-130.938,0c0.247,-4.576 4.066,-8.214 8.749,-8.214l113.432,0c4.683,0 8.494,3.638 8.757,8.214Z" style="fill:#fbf4a4;fill-rule:nonzero;"/><path d="M310.497,382.87l0,29.533c0,4.832 -3.926,8.75 -8.79,8.75l-56.737,0l0,-38.826l65.494,0c0.033,0.181 0.033,0.362 0.033,0.543Z" style="fill:#dea111;fill-rule:nonzero;"/><path d="M259.498,429.367l0,38.826l-56.695,0c-4.865,0 -8.791,-3.926 -8.791,-8.75l0,-29.532c0,-0.182 0,-0.363 0.041,-0.544l65.445,0Z" style="fill:#f1c40f;fill-rule:nonzero;"/><path d="M324.984,429.367l-130.931,0c0.256,-4.584 4.067,-8.214 8.75,-8.214l113.431,0c4.684,0 8.503,3.63 8.75,8.214Z" style="fill:#fbf4a4;fill-rule:nonzero;"/><path d="M325.025,429.911l0,29.532c0,4.824 -3.926,8.75 -8.791,8.75l-56.736,0l0,-38.826l65.486,0c0.041,0.181 0.041,0.362 0.041,0.544Z" style="fill:#dea111;fill-rule:nonzero;"/><path d="M259.498,476.408l0,38.825l-56.695,0c-4.865,0 -8.791,-3.926 -8.791,-8.758l0,-29.524c0,-0.181 0,-0.362 0.041,-0.543l65.445,0Z" style="fill:#f1c40f;fill-rule:nonzero;"/><path d="M324.984,476.408l-130.931,0c0.256,-4.585 4.067,-8.215 8.75,-8.215l113.431,0c4.684,0 8.503,3.63 8.75,8.215Z" style="fill:#fbf4a4;fill-rule:nonzero;"/><path d="M325.025,476.951l0,29.524c0,4.832 -3.926,8.758 -8.791,8.758l-56.736,0l0,-38.825l65.486,0c0.041,0.181 0.041,0.362 0.041,0.543Z" style="fill:#dea111;fill-rule:nonzero;"/><path d="M259.498,523.439l0,38.826l-56.695,0c-4.865,0 -8.791,-3.918 -8.791,-8.749l0,-29.533c0,-0.181 0,-0.362 0.041,-0.544l65.445,0Z" style="fill:#f1c40f;fill-rule:nonzero;"/><path d="M324.984,523.439l-130.931,0c0.256,-4.576 4.067,-8.206 8.75,-8.206l113.431,0c4.684,0 8.503,3.63 8.75,8.206Z" style="fill:#fbf4a4;fill-rule:nonzero;"/><path d="M325.025,523.983l0,29.533c0,4.831 -3.926,8.749 -8.791,8.749l-56.736,0l0,-38.826l65.486,0c0.041,0.182 0.041,0.363 0.041,0.544Z" style="fill:#dea111;fill-rule:nonzero;"/><path d="M259.498,570.48l0,38.825l-56.695,0c-4.865,0 -8.791,-3.918 -8.791,-8.749l0,-29.533c0,-0.181 0,-0.362 0.041,-0.543l65.445,0Z" style="fill:#f1c40f;fill-rule:nonzero;"/><path d="M324.984,570.48l-130.931,0c0.256,-4.577 4.067,-8.215 8.75,-8.215l113.431,0c4.684,0 8.503,3.638 8.75,8.215Z" style="fill:#fbf4a4;fill-rule:nonzero;"/><path d="M325.025,571.023l0,29.533c0,4.831 -3.926,8.749 -8.791,8.749l-56.736,0l0,-38.825l65.486,0c0.041,0.181 0.041,0.362 0.041,0.543Z" style="fill:#dea111;fill-rule:nonzero;"/><path d="M75.017,429.367l0,38.826l-56.695,0c-4.873,0 -8.791,-3.926 -8.791,-8.75l0,-29.532c0,-0.182 0,-0.363 0.033,-0.544l65.453,0Z" style="fill:#f1c40f;fill-rule:nonzero;"/><path d="M140.503,429.367l-130.939,0c0.255,-4.584 4.066,-8.214 8.758,-8.214l113.423,0c4.691,0 8.502,3.63 8.758,8.214Z" style="fill:#fbf4a4;fill-rule:nonzero;"/><path d="M140.544,429.911l0,29.532c0,4.824 -3.926,8.75 -8.799,8.75l-56.728,0l0,-38.826l65.486,0c0.041,0.181 0.041,0.362 0.041,0.544Z" style="fill:#dea111;fill-rule:nonzero;"/><path d="M75.017,476.408l0,38.825l-56.695,0c-4.873,0 -8.791,-3.926 -8.791,-8.758l0,-29.524c0,-0.181 0,-0.362 0.033,-0.543l65.453,0Z" style="fill:#f1c40f;fill-rule:nonzero;"/><path d="M140.503,476.408l-130.939,0c0.255,-4.585 4.066,-8.215 8.758,-8.215l113.423,0c4.691,0 8.502,3.63 8.758,8.215Z" style="fill:#fbf4a4;fill-rule:nonzero;"/><path d="M140.544,476.951l0,29.524c0,4.832 -3.926,8.758 -8.799,8.758l-56.728,0l0,-38.825l65.486,0c0.041,0.181 0.041,0.362 0.041,0.543Z" style="fill:#dea111;fill-rule:nonzero;"/><path d="M75.017,523.439l0,38.826l-56.695,0c-4.873,0 -8.791,-3.918 -8.791,-8.749l0,-29.533c0,-0.181 0,-0.362 0.033,-0.544l65.453,0Z" style="fill:#f1c40f;fill-rule:nonzero;"/><path d="M140.503,523.439l-130.939,0c0.255,-4.576 4.066,-8.206 8.758,-8.206l113.423,0c4.691,0 8.502,3.63 8.758,8.206Z" style="fill:#fbf4a4;fill-rule:nonzero;"/><path d="M140.544,523.983l0,29.533c0,4.831 -3.926,8.749 -8.799,8.749l-56.728,0l0,-38.826l65.486,0c0.041,0.182 0.041,0.363 0.041,0.544Z" style="fill:#dea111;fill-rule:nonzero;"/><path d="M75.017,570.48l0,38.825l-56.695,0c-4.873,0 -8.791,-3.918 -8.791,-8.749l0,-29.533c0,-0.181 0,-0.362 0.033,-0.543l65.453,0Z" style="fill:#f1c40f;fill-rule:nonzero;"/><path d="M140.503,570.48l-130.939,0c0.255,-4.577 4.066,-8.215 8.758,-8.215l113.423,0c4.691,0 8.502,3.638 8.758,8.215Z" style="fill:#fbf4a4;fill-rule:nonzero;"/><path d="M140.544,571.023l0,29.533c0,4.831 -3.926,8.749 -8.799,8.749l-56.728,0l0,-38.825l65.486,0c0.041,0.181 0.041,0.362 0.041,0.543Z" style="fill:#dea111;fill-rule:nonzero;"/><path d="M426.834,335.287l0,38.826l-56.703,0c-4.865,0 -8.782,-3.918 -8.782,-8.75l0,-29.533c0,-0.181 0,-0.362 0.032,-0.543l65.453,0Z" style="fill:#f1c40f;fill-rule:nonzero;"/><path d="M492.32,335.287l-130.939,0c0.256,-4.576 4.067,-8.206 8.75,-8.206l113.431,0c4.684,0 8.503,3.63 8.758,8.206Z" style="fill:#fbf4a4;fill-rule:nonzero;"/><path d="M492.353,335.83l0,29.533c0,4.832 -3.926,8.75 -8.791,8.75l-56.728,0l0,-38.826l65.486,0c0.033,0.181 0.033,0.362 0.033,0.543Z" style="fill:#dea111;fill-rule:nonzero;"/><path d="M426.834,288.247l0,38.834l-56.703,0c-4.865,0 -8.782,-3.926 -8.782,-8.758l0,-29.525c0,-0.181 0,-0.362 0.032,-0.551l65.453,0Z" style="fill:#f1c40f;fill-rule:nonzero;"/><path d="M492.32,288.247l-130.939,0c0.256,-4.577 4.067,-8.206 8.75,-8.206l113.431,0c4.684,0 8.503,3.629 8.758,8.206Z" style="fill:#fbf4a4;fill-rule:nonzero;"/><path d="M492.353,288.798l0,29.525c0,4.832 -3.926,8.758 -8.791,8.758l-56.728,0l0,-38.834l65.486,0c0.033,0.189 0.033,0.37 0.033,0.551Z" style="fill:#dea111;fill-rule:nonzero;"/><path d="M408.669,241.215l0,38.826l-56.696,0c-4.864,0 -8.79,-3.927 -8.79,-8.75l0,-29.533c0,-0.181 0,-0.362 0.041,-0.543l65.445,0Z" style="fill:#f1c40f;fill-rule:nonzero;"/><path d="M474.154,241.215l-130.93,0c0.247,-4.576 4.066,-8.215 8.749,-8.215l113.432,0c4.683,0 8.502,3.639 8.749,8.215Z" style="fill:#fbf4a4;fill-rule:nonzero;"/><path d="M474.195,241.758l0,29.533c0,4.823 -3.926,8.75 -8.79,8.75l-56.736,0l0,-38.826l65.485,0c0.041,0.181 0.041,0.362 0.041,0.543Z" style="fill:#dea111;fill-rule:nonzero;"/><path d="M434.152,382.327l0,38.826l-56.695,0c-4.873,0 -8.791,-3.918 -8.791,-8.75l0,-29.533c0,-0.181 0,-0.362 0.033,-0.543l65.453,0Z" style="fill:#f1c40f;fill-rule:nonzero;"/><path d="M499.637,382.327l-130.938,0c0.255,-4.576 4.066,-8.214 8.758,-8.214l113.423,0c4.691,0 8.502,3.638 8.757,8.214Z" style="fill:#fbf4a4;fill-rule:nonzero;"/><path d="M499.67,382.87l0,29.533c0,4.832 -3.918,8.75 -8.79,8.75l-56.728,0l0,-38.826l65.485,0c0.033,0.181 0.033,0.362 0.033,0.543Z" style="fill:#dea111;fill-rule:nonzero;"/><path d="M448.679,429.367l0,38.826l-56.703,0c-4.865,0 -8.782,-3.926 -8.782,-8.75l0,-29.532c0,-0.182 0,-0.363 0.032,-0.544l65.453,0Z" style="fill:#f1c40f;fill-rule:nonzero;"/><path d="M514.165,429.367l-130.939,0c0.256,-4.584 4.075,-8.214 8.75,-8.214l113.44,0c4.675,0 8.494,3.63 8.749,8.214Z" style="fill:#fbf4a4;fill-rule:nonzero;"/><path d="M514.198,429.911l0,29.532c0,4.824 -3.918,8.75 -8.782,8.75l-56.737,0l0,-38.826l65.486,0c0.033,0.181 0.033,0.362 0.033,0.544Z" style="fill:#dea111;fill-rule:nonzero;"/><path d="M448.679,476.408l0,38.825l-56.703,0c-4.865,0 -8.782,-3.926 -8.782,-8.758l0,-29.524c0,-0.181 0,-0.362 0.032,-0.543l65.453,0Z" style="fill:#f1c40f;fill-rule:nonzero;"/><path d="M514.165,476.408l-130.939,0c0.256,-4.585 4.075,-8.215 8.75,-8.215l113.44,0c4.675,0 8.494,3.63 8.749,8.215Z" style="fill:#fbf4a4;fill-rule:nonzero;"/><path d="M514.198,476.951l0,29.524c0,4.832 -3.918,8.758 -8.782,8.758l-56.737,0l0,-38.825l65.486,0c0.033,0.181 0.033,0.362 0.033,0.543Z" style="fill:#dea111;fill-rule:nonzero;"/><path d="M448.679,523.439l0,38.826l-56.703,0c-4.865,0 -8.782,-3.918 -8.782,-8.749l0,-29.533c0,-0.181 0,-0.362 0.032,-0.544l65.453,0Z" style="fill:#f1c40f;fill-rule:nonzero;"/><path d="M514.165,523.439l-130.939,0c0.256,-4.576 4.075,-8.206 8.75,-8.206l113.44,0c4.675,0 8.494,3.63 8.749,8.206Z" style="fill:#fbf4a4;fill-rule:nonzero;"/><path d="M514.198,523.983l0,29.533c0,4.831 -3.918,8.749 -8.782,8.749l-56.737,0l0,-38.826l65.486,0c0.033,0.182 0.033,0.363 0.033,0.544Z" style="fill:#dea111;fill-rule:nonzero;"/><path d="M448.679,570.48l0,38.825l-56.703,0c-4.865,0 -8.782,-3.918 -8.782,-8.749l0,-29.533c0,-0.181 0,-0.362 0.032,-0.543l65.453,0Z" style="fill:#f1c40f;fill-rule:nonzero;"/><path d="M514.165,570.48l-130.939,0c0.256,-4.577 4.075,-8.215 8.75,-8.215l113.44,0c4.675,0 8.494,3.638 8.749,8.215Z" style="fill:#fbf4a4;fill-rule:nonzero;"/><path d="M514.198,571.023l0,29.533c0,4.831 -3.918,8.749 -8.782,8.749l-56.737,0l0,-38.825l65.486,0c0.033,0.181 0.033,0.362 0.033,0.543Z" style="fill:#dea111;fill-rule:nonzero;"/><path d="M485.052,19.389l-27.689,8.133l8.091,10.107l-187.634,149.22l-58.802,-39.023l-208.022,164.669l20.676,23.632l188.284,-152.331l58.819,42.192l197.972,-174.234l7.959,9.951l14.01,-25.22l14.017,-25.219l-27.681,8.123Z" style="fill:#60aa45;fill-rule:nonzero;"/></g></svg>