<?xml version="1.0" encoding="UTF-8" standalone="no"?><!DOCTYPE svg PUBLIC "-//W3C//DTD SVG 1.1//EN" "http://www.w3.org/Graphics/SVG/1.1/DTD/svg11.dtd"><svg width="100%" height="100%" viewBox="0 0 478 527" version="1.1" xmlns="http://www.w3.org/2000/svg" xmlns:xlink="http://www.w3.org/1999/xlink" xml:space="preserve" xmlns:serif="http://www.serif.com/" style="fill-rule:evenodd;clip-rule:evenodd;stroke-linejoin:round;stroke-miterlimit:1.41421;"><rect id="Mesa-de-trabajo1" serif:id="Mesa de trabajo1" x="0" y="0" width="477.328" height="526.877" style="fill:none;"/><clipPath id="_clip1"><rect x="0" y="0" width="477.328" height="526.877"/></clipPath><g clip-path="url(#_clip1)"><g><path d="M356.326,180.614c0,97.372 -78.16,176.273 -174.56,176.273c-96.407,0 -174.574,-78.901 -174.574,-176.273c0,-97.387 78.167,-176.295 174.574,-176.295c96.4,0 174.56,78.908 174.56,176.295Z" style="fill:#da9e11;fill-rule:nonzero;"/><path d="M330.894,180.614c0,83.185 -66.769,150.598 -149.128,150.598c-82.366,0 -149.142,-67.413 -149.142,-150.598c0,-83.2 66.776,-150.613 149.142,-150.613c82.359,0 149.128,67.413 149.128,150.613Z" style="fill:#f1c40f;fill-rule:nonzero;"/><g><g><path d="M179.342,62.096l69.351,115.885l-138.702,0l69.351,-115.885Z" style="fill:#f2f2f2;"/><path d="M179.342,137.568l69.351,40.413l-138.702,0l69.351,-40.413Z" style="fill:#ccc;"/><path d="M179.568,218.36l-69.351,-40.414l138.702,0l-69.351,40.414Z" style="fill:#ccc;"/></g><path d="M179.342,62.096l69.351,115.885l-69.351,40.301l0,-156.186Z" style="fill-opacity:0.335655;"/><path d="M179.817,291.92l-69.35,-103.372l69.35,42.069l69.351,-42.069l-69.351,103.372Z" style="fill:#f2f2f2;"/><path d="M179.428,291.329l0,-60.642l69.248,-41.576l-69.248,102.218Z" style="fill:#ccc;"/><path d="M179.661,230.284l68.997,-41.058l-68.997,102.177l0,-61.119Z" style="fill-opacity:0.335655;"/></g><path d="M444.689,393.45l-153.48,-129.709l51.502,195.299l39.268,-25.246l36.126,57.288l23.472,-15.091l-36.133,-57.295l39.245,-25.246Z" style="fill:#d9d9d9;fill-rule:nonzero;"/><path d="M418.105,491.082l-36.126,-57.288l-39.268,25.246l-51.502,-195.299l153.48,129.709l-39.245,25.246l36.133,57.295l-23.472,15.091Zm66.167,-95.037l-234.738,-198.398l78.777,298.712l46.489,-29.9l36.126,57.295l62.99,-40.514l-36.126,-57.295l46.482,-29.9Z" style="fill:#f2f2f2;fill-rule:nonzero;"/></g></g></svg>