<?xml version="1.0" encoding="UTF-8" standalone="no"?><!DOCTYPE svg PUBLIC "-//W3C//DTD SVG 1.1//EN" "http://www.w3.org/Graphics/SVG/1.1/DTD/svg11.dtd"><svg width="100%" height="100%" viewBox="0 0 66 66" version="1.1" xmlns="http://www.w3.org/2000/svg" xmlns:xlink="http://www.w3.org/1999/xlink" xml:space="preserve" xmlns:serif="http://www.serif.com/" style="fill-rule:evenodd;clip-rule:evenodd;stroke-linejoin:round;stroke-miterlimit:1.41421;"><rect id="Mesa-de-trabajo1" serif:id="Mesa de trabajo1" x="0" y="0" width="65.607" height="65.941" style="fill:none;"/><g><circle cx="32.8" cy="32.794" r="30.411" style="fill:#f1c40f;"/><rect x="27.993" y="6.876" width="3.014" height="7.816" style="fill:#fff;"/><rect x="27.993" y="51.599" width="3.014" height="7.816" style="fill:#fff;"/><rect x="32.465" y="6.876" width="3.014" height="7.816" style="fill:#fff;"/><rect x="32.465" y="51.599" width="3.014" height="7.816" style="fill:#fff;"/><path d="M32.8,12.386c11.278,0 20.434,9.157 20.434,20.435c0,11.277 -9.156,20.434 -20.434,20.434c-11.278,0 -20.434,-9.157 -20.434,-20.434c0,-11.278 9.156,-20.435 20.434,-20.435Zm0,6.894c7.473,0 13.54,6.067 13.54,13.541c0,7.473 -6.067,13.54 -13.54,13.54c-7.473,0 -13.54,-6.067 -13.54,-13.54c0,-7.474 6.067,-13.541 13.54,-13.541Z" style="fill:#fff;"/><path d="M32.8,22.408c5.747,0 10.413,4.666 10.413,10.413c0,5.746 -4.666,10.412 -10.413,10.412c-5.747,0 -10.413,-4.666 -10.413,-10.412c0,-5.747 4.666,-10.413 10.413,-10.413Zm0,3.513c3.808,0 6.9,3.091 6.9,6.9c0,3.808 -3.092,6.899 -6.9,6.899c-3.808,0 -6.9,-3.091 -6.9,-6.899c0,-3.809 3.092,-6.9 6.9,-6.9Z" style="fill:#fff;"/><path d="M29.011,33.54l27.809,-18.044l0,36.089l-27.809,-18.045Z" style="fill:#f1c40f;"/></g></svg>